<svg xmlns="http://www.w3.org/2000/svg" width="36" height="36" viewBox="0 0 36 36">
  <defs>
    <filter id="atk-glow" x="-30%" y="-30%" width="160%" height="160%">
      <feDropShadow dx="1" dy="1.5" stdDeviation="2" flood-color="#ef4444" flood-opacity="0.9"/>
      <feDropShadow dx="0" dy="0" stdDeviation="3" flood-color="#f97316" flood-opacity="0.6"/>
    </filter>
    <linearGradient id="blade-grad" x1="0%" y1="0%" x2="100%" y2="100%">
      <stop offset="0%" stop-color="#ffffff"/>
      <stop offset="25%" stop-color="#fef08a"/>
      <stop offset="60%" stop-color="#ef4444"/>
      <stop offset="100%" stop-color="#991b1b"/>
    </linearGradient>
    <linearGradient id="guard-grad" x1="0%" y1="0%" x2="100%" y2="100%">
      <stop offset="0%" stop-color="#fde047"/>
      <stop offset="50%" stop-color="#f59e0b"/>
      <stop offset="100%" stop-color="#78350f"/>
    </linearGradient>
  </defs>
  <g filter="url(#atk-glow)">
    <path d="M 4 4 L 8 4 L 23 19 L 20 22 L 4 6 Z" 
          fill="url(#blade-grad)" stroke="#450a0a" stroke-width="1.5" stroke-linejoin="round"/>
    <line x1="4" y1="4" x2="20" y2="20" stroke="#fff" stroke-width="1.2" stroke-linecap="round"/>
    <path d="M 17 25 L 25 17 L 27 19 L 19 27 Z" fill="url(#guard-grad)" stroke="#451a03" stroke-width="1"/>
    <circle cx="22" cy="22" r="2.2" fill="#ef4444" stroke="#7f1d1d" stroke-width="0.8"/>
    <circle cx="21.3" cy="21.3" r="0.8" fill="#ffffff"/>
    <line x1="22" y1="22" x2="28" y2="28" stroke="#7f1d1d" stroke-width="3.5" stroke-linecap="round"/>
    <line x1="23" y1="23" x2="27" y2="27" stroke="#fbbf24" stroke-width="1.2" stroke-dasharray="2,2"/>
    <circle cx="29.5" cy="29.5" r="2.8" fill="url(#guard-grad)" stroke="#451a03" stroke-width="1"/>
    <circle cx="4" cy="4" r="1.5" fill="#ffffff"/>
    <line x1="1" y1="4" x2="7" y2="4" stroke="#fef08a" stroke-width="1"/>
    <line x1="4" y1="1" x2="4" y2="7" stroke="#fef08a" stroke-width="1"/>
  </g>
</svg>